{"title":"Robin Hood 2010 TS.XVID.FEEL-FREE","uid":5591803,"size":1615513615,"categoryP":"video","categoryS":"movies","magnet":"?xt=urn:btih:623e7088aa0cafbc6d6ff4f20f361dbcacf820a6&amp;dn=Robin+Hood+2010+TS.XVID.FEEL-FREE&amp;tr=udp%3A%2F%2Ftracker.openbittorrent.com%3A80&amp;tr=udp%3A%2F%2Fopen.demonii.com%3A1337&amp;tr=udp%3A%2F%2Ftracker.coppersurfer.tk%3A6969&amp;tr=udp%3A%2F%2Fexodus.desync.com%3A6969","seeders":0,"leechers":0,"uploader":"xenl","files":2,"time":1274888817,"description":"+---------------------------------+\n|Robin Hood 2010 TS.XVID.FEEL-FREE|\n+---------------------------------+\n\nGENRE:Action | Drama\nSource Audio:BUT.Thank You!\nSource video:TS ELEKTI4KA.Thank You!\nAudio Language.: English\nEncoder: Tony2\niMDB URL:http://www.imdb.com/title/tt0955308/\n...................................................\n\n+-------+\n|General|\n+-------+\n\nComplete name : Robin Hood 2010 TS.XVID.FEEL-FREE\nFormat : AVI\nFormat/Info : Audio Video Interleave\nFile size : 1.50 GiB\nDuration : 2h 11mn\nOverall bit rate : 1 637 Kbps\n................................................\n\n+-----+\n|Video|\n+-----+\n\nID : 0\nFormat : MPEG-4 Visual\nFormat profile : Simple@L3\nFormat settings, BVOP : Yes\nFormat settings, QPel : No\nFormat settings, GMC : No warppoints\nFormat settings, Matrix : Default (H.263)\nCodec ID : XVID\nCodec ID/Hint : XviD\nDuration : 2h 11mn\nBit rate : 1 500 Kbps\nWidth : 720 pixels\nHeight : 336 pixels\nDisplay aspect ratio : 2.2:1\nFrame rate : 23.976 fps\nResolution : 24 bits\nScan type : Progressive\nBits/(Pixel*Frame) : 0.259\nStream size : 1.38 GiB (92%)\n.................................................\n\n+-----+\n|Audio|\n+-----+\n\nID : 1\nFormat : MPEG Audio\nFormat version : Version 1\nFormat profile : Layer 3\nCodec ID : 55\nCodec ID/Hint : MP3\nDuration : 2h 11mn\nBit rate mode : Constant\nBit rate : 128 Kbps\nChannel(s) : 2 channels\nSampling rate : 48.0 KHz\nResolution : 16 bits\nStream size : 120 MiB (8%)\nAlignment : Aligned on interleaves\nInterleave, duration : 42 ms (1.00 video frame)\nInterleave, preload duration : 504 ms\n...................................................\n\nPlot:\nThe story of an archer in the army of Richard Coeur de Lion who fights against the Norman invaders and becomes the legendary hero known as Robin Hood.\n...................................................","torrent":{"xt":"urn:btih:623e7088aa0cafbc6d6ff4f20f361dbcacf820a6","amp;dn":"Robin+Hood+2010+TS.XVID.FEEL-FREE","amp;tr":["udp%3A%2F%2Ftracker.openbittorrent.com%3A80","udp%3A%2F%2Fopen.demonii.com%3A1337","udp%3A%2F%2Ftracker.coppersurfer.tk%3A6969","udp%3A%2F%2Fexodus.desync.com%3A6969"],"infoHash":"623e7088aa0cafbc6d6ff4f20f361dbcacf820a6","infoHashBuffer":{"type":"Buffer","data":[98,62,112,136,170,12,175,188,109,111,244,242,15,54,29,188,172,248,32,166]},"announce":[],"urlList":[]}}